<svg xmlns="http://www.w3.org/2000/svg" width="880" height="40" viewBox="0 0 880 40" fill="none"><defs></defs><rect width="880" height="40" fill="#fcfaf6"/><path d="M21.0,16.7 Q30.8,20.2 39.4,18.1 Q50.8,17.7 63.7,21.2 Q78.2,19.2 85.7,17.1 Q91.7,13.7 103.5,16.7 Q110.5,19.3 123.0,20.0 Q134.9,18.4 142.7,17.9 Q152.3,18.3 168.0,20.3 Q180.5,20.7 186.0,20.6 Q201.9,21.1 211.2,16.5 Q218.2,20.5 232.1,21.4 Q242.3,19.7 249.9,17.6 Q260.9,19.2 275.2,18.9 Q280.0,17.6 290.1,17.2 Q303.0,22.1 316.4,20.7 Q329.4,19.5 337.1,21.6 Q346.7,20.2 356.3,23.3 Q369.1,24.4 376.1,20.4 Q386.8,21.6 400.3,20.8 Q411.7,18.3 421.5,20.5 Q433.3,19.0 441.4,16.8 Q452.2,17.9 459.1,18.5 Q465.6,17.1 479.1,18.1 Q486.3,21.3 500.2,18.4 Q515.2,21.1 524.9,19.1 Q533.2,15.4 544.1,18.0 Q556.9,23.6 564.4,23.1 Q573.3,21.8 588.0,20.8 Q593.9,23.0 605.7,21.6 Q618.0,17.8 626.6,19.2 Q639.9,20.4 653.4,21.0 Q660.8,23.7 671.4,21.3 Q682.4,19.6 694.4,21.9 Q703.0,20.9 711.1,16.7 Q719.8,16.2 732.7,18.4 Q746.3,21.8 753.0,23.1 Q765.4,21.0 778.6,18.7 Q785.7,17.1 798.1,19.3 Q808.4,20.1 820.9,19.7 Q827.2,17.0 837.4,18.2 Q845.9,19.2 860.4,18.3" stroke="#1a1e29" stroke-width="2.2" fill="none" stroke-linecap="round" opacity="0.75"/><circle cx="120" cy="20.0" r="5" fill="#fde74c"/><circle cx="120" cy="20.0" r="5" fill="none" stroke="#1a1e29" stroke-width="1.2"/><circle cx="440" cy="20.0" r="5" fill="#4cc9f0"/><circle cx="440" cy="20.0" r="5" fill="none" stroke="#1a1e29" stroke-width="1.2"/><circle cx="760" cy="20.0" r="5" fill="#ff5d8f"/><circle cx="760" cy="20.0" r="5" fill="none" stroke="#1a1e29" stroke-width="1.2"/></svg>